<svg xmlns="http://www.w3.org/2000/svg" width="28" height="28" viewBox="0 0 28 28">
  <g fill="#ffffff" transform="translate(1 1)">
    <path stroke="#ffffff" d="M18.8247862,0 L7.17490625,0 C3.21866534,0 0,3.21881913 0,7.17506004 L0,18.82494 C0,22.7813347 3.21866534,26 7.17490625,26 L18.8247862,26 C22.7813347,26 26,22.7811809 26,18.82494 L26,7.17506004 C26.0001538,3.21881913 22.7813347,0 18.8247862,0 Z M23.6933078,18.82494 C23.6933078,21.5093398 21.5093398,23.693154 18.82494,23.693154 L7.17490625,23.693154 C4.49066023,23.6933078 2.30684601,21.5093398 2.30684601,18.82494 L2.30684601,7.17506004 C2.30684601,4.49081402 4.49066023,2.30684601 7.17490625,2.30684601 L18.8247862,2.30684601 C21.509186,2.30684601 23.693154,4.49081402 23.693154,7.17506004 L23.693154,18.82494 L23.6933078,18.82494 Z"/>
    <path stroke="#ffffff" d="M13,7 C9.69155017,7 7,9.69161196 7,13.0001377 C7,16.3085258 9.69155017,19 13,19 C16.3084498,19 19,16.3085258 19,13.0001377 C19,9.69161196 16.3084498,7 13,7 Z M13,17 C10.7944894,17 9,15.2057279 9,13.00014 C9,10.7944122 10.7943493,9 13,9 C15.2056507,9 17,10.7944122 17,13.00014 C17,15.2057279 15.2055106,17 13,17 Z"/>
    <path d="M19.5,5 C19.1059091,5 18.7187727,5.15954545 18.4404545,5.43909091 C18.1607727,5.71727273 18,6.10454545 18,6.5 C18,6.89422727 18.1609091,7.28136364 18.4404545,7.56090909 C18.7186364,7.83909091 19.1059091,8 19.5,8 C19.8954545,8 20.2813636,7.83909091 20.5609091,7.56090909 C20.8404545,7.28136364 21,6.89409091 21,6.5 C21,6.10454545 20.8404545,5.71727273 20.5609091,5.43909091 C20.2827273,5.15954545 19.8954545,5 19.5,5 Z"/>
  </g>
</svg>
