<svg xmlns="http://www.w3.org/2000/svg" width="22" height="21" viewBox="0 0 22 21">
  <path fill="#ffffff" d="M22,12.8750833 L22,21 L17.2846877,21 L17.2846877,13.4192413 C17.2846877,11.5148929 16.6026686,10.2152496 14.8958818,10.2152496 C13.5929666,10.2152496 12.8176008,11.0911139 12.476489,11.9383653 C12.3520949,12.2412543 12.3200757,12.6628362 12.3200757,13.0868195 L12.3200757,21 L7.60317774,21 C7.60317774,21 7.66670464,8.16068292 7.60317774,6.83043392 L12.3196154,6.83043392 L12.3196154,8.83891319 C12.3100505,8.85393502 12.2976213,8.87013202 12.2886191,8.88469399 L12.3196154,8.88469399 L12.3196154,8.83891319 C12.9462402,7.8748084 14.0653264,6.49755232 16.570189,6.49755232 C19.6735446,6.49750123 22,8.52273955 22,12.8750833 Z M2.66910166,0 C1.055457,0 0,1.05730142 0,2.44768882 C0,3.80777709 1.02492113,4.89716595 2.60649544,4.89716595 L2.63800315,4.89716595 C4.28289977,4.89716595 5.30587724,3.80798147 5.30587724,2.44768882 C5.27488102,1.05730142 4.28289977,0 2.66910166,0 Z M0.28014238,21 L4.99525013,21 L4.99525013,6.83043392 L0.28014238,6.83043392 L0.28014238,21 Z"/>
</svg>
